# xmcd
#
# Track frame offsets: 
#        150
#        22145
#        41517
#        54422
#        74877
#        89945
#        105010
#        122767
#        139985
#        158122
#        178727
#        198097
#        218542
#        241172
#        258277
#        277732
#        296027
#
# Disc length: 4304 seconds
#
# Revision: 0
# Processed by: cddbd v1.5PL3 Copyright (c) Steve Scherf et al.
# Submitted via: ExactAudioCopy v0.95a4
#
DISCID=f910ce11
DTITLE=HITS lab. - trance zone -deep forest zone-
DYEAR=1900
DGENRE=Trance
TTITLE0=FLOATING FOREST
TTITLE1=WINDING ROAD
TTITLE2=SKY BLUE
TTITLE3=NATIVITY
TTITLE4=LANDING
TTITLE5=CAN'T TAKE MY EYES OFF OF YOU
TTITLE6=ORAGANIC COLOR
TTITLE7=DEFOREST
TTITLE8=WINDS STORM
TTITLE9=RUNAWAY
TTITLE10=ACID RAIN
TTITLE11=SCRAMBLE
TTITLE12=SMOKE ON THE WATER
TTITLE13=AIR TIGHT
TTITLE14=MY HEART WILL GO ON
TTITLE15=BIT OF SILENCE
TTITLE16=EVERGREEN
EXTD=
EXTT0=
EXTT1=
EXTT2=
EXTT3=
EXTT4=
EXTT5=
EXTT6=
EXTT7=
EXTT8=
EXTT9=
EXTT10=
EXTT11=
EXTT12=
EXTT13=
EXTT14=
EXTT15=
EXTT16=
PLAYORDER=
